<svg xmlns="http://www.w3.org/2000/svg" width="96" height="96" viewBox="0 0 96 96" fill="none">
  <circle cx="48" cy="48" r="36" fill="#E6FFFB" stroke="#000" stroke-width="3"/>
  <circle cx="36" cy="44" r="5" fill="#000"/>
  <circle cx="60" cy="44" r="5" fill="#000"/>
  <path d="M32 58c4 4 10 6 16 6s12-2 16-6" stroke="#000" stroke-width="3" stroke-linecap="round"/>
  <path d="M30 48c0 6-7 10-7 10s-7-4-7-10c0-4 3-7 7-7s7 3 7 7z" fill="#7FDBFF" stroke="#000" stroke-width="2"/>
  <path d="M80 48c0 6-7 10-7 10s-7-4-7-10c0-4 3-7 7-7s7 3 7 7z" fill="#7FDBFF" stroke="#000" stroke-width="2"/>
</svg>
